<svg xmlns="http://www.w3.org/2000/svg" aria-hidden="true" style="position:absolute;width:0;height:0;overflow:hidden">
  <defs>
    <symbol id="icon-plus" viewBox="0 0 32 32">
      <path d="M8 17.6c-0.884 0-1.6-0.716-1.6-1.6s0.716-1.6 1.6-1.6h16c0.884 0 1.6 0.716 1.6 1.6s-0.716 1.6-1.6 1.6h-16z"></path>
      <path d="M14.4 8c0-0.884 0.716-1.6 1.6-1.6s1.6 0.716 1.6 1.6v16c0 0.884-0.716 1.6-1.6 1.6s-1.6-0.716-1.6-1.6v-16z"></path>
    </symbol>
      <symbol id="icon-gear" viewBox="0 0 32 32">
      <path d="M16.892 3.6c0.475 0 0.905 0.28 1.097 0.714l0.708 1.6c0.351 0.793-0.23 1.686-1.097 1.686h-3.2c-0.837 0-1.417-0.835-1.124-1.619l0.597-1.6c0.175-0.469 0.623-0.781 1.124-0.781h1.896z"></path>
      <path d="M15.108 28.4c-0.475 0-0.905-0.28-1.097-0.715l-0.708-1.6c-0.351-0.793 0.23-1.685 1.097-1.685h3.2c0.837 0 1.417 0.835 1.124 1.619l-0.597 1.6c-0.175 0.469-0.623 0.781-1.124 0.781h-1.895z"></path>
      <path d="M28.4 16.892c0 0.475-0.28 0.905-0.715 1.097l-1.6 0.708c-0.793 0.351-1.685-0.23-1.685-1.097v-3.2c0-0.837 0.835-1.417 1.619-1.124l1.6 0.597c0.469 0.175 0.781 0.623 0.781 1.124v1.895z"></path>
      <path d="M3.6 15.108c0-0.475 0.28-0.905 0.715-1.097l1.6-0.708c0.793-0.351 1.686 0.23 1.686 1.097v3.2c0 0.837-0.835 1.417-1.619 1.124l-1.6-0.597c-0.469-0.175-0.781-0.623-0.781-1.124v-1.896z"></path>
      <path d="M25.399 7.863c0.336 0.336 0.442 0.838 0.271 1.281l-0.631 1.632c-0.313 0.809-1.354 1.029-1.968 0.416l-2.263-2.263c-0.592-0.592-0.411-1.592 0.35-1.94l1.553-0.71c0.456-0.208 0.993-0.111 1.347 0.243l1.34 1.34z"></path>
      <path d="M6.601 24.137c-0.336-0.336-0.442-0.838-0.271-1.281l0.631-1.632c0.313-0.809 1.354-1.029 1.968-0.416l2.263 2.263c0.592 0.592 0.411 1.592-0.35 1.94l-1.553 0.709c-0.456 0.208-0.993 0.111-1.347-0.243l-1.34-1.34z"></path>
      <path d="M24.138 25.399c-0.336 0.336-0.838 0.442-1.281 0.271l-1.632-0.631c-0.809-0.313-1.029-1.354-0.416-1.968l2.263-2.263c0.592-0.592 1.592-0.411 1.94 0.35l0.709 1.553c0.208 0.456 0.111 0.993-0.243 1.347l-1.34 1.34z"></path>
      <path d="M7.863 6.601c0.336-0.336 0.838-0.442 1.281-0.271l1.632 0.631c0.809 0.313 1.029 1.354 0.416 1.968l-2.263 2.263c-0.592 0.592-1.592 0.411-1.94-0.35l-0.71-1.553c-0.208-0.456-0.111-0.993 0.243-1.347l1.34-1.34z"></path>
      <path d="M8.929 23.071c1.861 1.861 4.386 2.929 7.071 2.929s5.21-1.068 7.071-2.929 2.929-4.386 2.929-7.071c0-2.685-1.068-5.21-2.929-7.071s-4.386-2.929-7.071-2.929c-2.685 0-5.21 1.068-7.071 2.929s-2.929 4.386-2.929 7.071c0 2.685 1.068 5.21 2.929 7.071zM17.98 17.98c-0.524 0.524-1.224 0.82-1.98 0.82s-1.456-0.296-1.98-0.82c-0.524-0.524-0.82-1.224-0.82-1.98s0.296-1.456 0.82-1.98 1.224-0.82 1.98-0.82c0.756 0 1.456 0.296 1.98 0.82s0.82 1.224 0.82 1.98c0 0.756-0.296 1.456-0.82 1.98z"></path>
    </symbol>
    <symbol id="icon-home" viewBox="0 0 32 32">
      <path d="M2.909 17.455c-1.337 0-1.966-1.653-0.966-2.542l13.091-11.636c0.551-0.49 1.382-0.49 1.933 0l13.091 11.636c1 0.889 0.371 2.542-0.966 2.542h-1.455v10.182c0 0.803-0.651 1.455-1.455 1.455h-20.364c-0.803 0-1.455-0.651-1.455-1.455v-10.182h-1.455zM11.636 26.182v-7.273c0-0.803 0.651-1.455 1.455-1.455h5.818c0.803 0 1.455 0.651 1.455 1.455v7.273h4.364v-10.182c0-0.546 0.301-1.021 0.745-1.27l-9.473-8.42-9.473 8.42c0.445 0.249 0.745 0.724 0.745 1.27v10.182h4.364zM14.545 26.182h2.909v-5.818h-2.909v5.818z"></path>
    </symbol>
    <symbol id="icon-arrow-down" viewBox="0 0 32 32">
      <path d="M20 26l-2-2 4.586-4.586-5.586-5.586-6 6-10.414-10.414 2.828-2.828 7.586 7.586 6-6 8.414 8.414 4.586-4.586 2 2v12h-12z"></path>
    </symbol>
    <symbol id="icon-arrow-up" viewBox="0 0 32 32">
      <path d="M20 6l-2 2 4.586 4.586-5.586 5.586-6-6-10.414 10.414 2.828 2.828 7.586-7.586 6 6 8.414-8.414 4.586 4.586 2-2v-12h-12z"></path>
    </symbol>
    <symbol id="icon-x" viewBox="0 0 32 32">
      <path d="M12.44 16l-10.222-16h7.12l6.662 10.428 6.662-10.428h7.12l-10.222 16 10.222 16h-7.12l-6.662-10.428-6.662 10.428h-7.12l10.222-16z"></path>
    </symbol>
  </defs>
</svg>
