<svg xmlns="http://www.w3.org/2000/svg" aria-hidden="true" style="position:absolute;width:0;height:0;overflow:hidden">
  <defs>
    <symbol id="icon-growth" viewBox="0 0 35 32">
      <path d="M0 20.173v11.312a.52.52 0 0 0 .518.504h4.467a.52.52 0 0 0 .519-.507V20.174zM11.816 0a5.937 5.937 0 1 1-5.937 5.937v-.003A5.934 5.934 0 0 1 11.813 0zm-.508 3.061v-.597h.821v.576c.101 0 .202 0 .288.026.21.023.406.049.576.084s.352.066.499.101v1.17q-.35-.03-.787-.049c-.437-.019-.556-.02-.793-.02H11.9q-.195 0-.382.034l.013-.002a.47.47 0 0 0-.257.121.35.35 0 0 0-.092.266V4.77v.078l-.001.022c0 .106.047.201.121.266.091.063.203.1.324.1l.05-.002h-.002.501l.065-.001c.3 0 .582.075.829.208l-.009-.005c.229.128.411.315.53.54l.003.007c.111.218.176.476.176.749v.037-.002.251q.007.076.007.165c0 .343-.087.667-.24.949l.005-.011c-.163.253-.41.44-.7.522l-.009.002a3.2 3.2 0 0 1-.697.118h-.009v.654h-.821v-.663h-.069c-.159 0-.317-.026-.47-.046s-.288-.043-.444-.069-.288-.055-.412-.089V7.377c.173 0 .36.029.559.037s.403.017.608.023h.599q.21 0 .408-.04l-.013.002a.53.53 0 0 0 .251-.122l-.001.001a.32.32 0 0 0 .084-.216v-.015.001-.089l.001-.018a.29.29 0 0 0-.118-.232l-.001-.001a.45.45 0 0 0-.264-.084l-.026.001h.001-.403a2 2 0 0 1-1.343-.393l.005.004q-.455-.386-.455-1.297v-.242l-.003-.098c0-.453.197-.859.509-1.14l.001-.001c.275-.212.616-.352.987-.386l.008-.001zM0 16.481l6.101-5.337.242.254a7.73 7.73 0 0 0 3.589 2.038l.053.011-3.421 3.035zm16.974-4.804c.865.928 1.706 1.839 2.568 2.689l9.432-9.467-3.037-3.049 9.476-.715-.542 9.654-2.905-2.914c-2.092 2.118-7.04 6.79-9.133 8.885-2.648 2.646-3.911 2.695-6.559.046l-2.96-3.294a7.75 7.75 0 0 0 3.667-1.842l-.007.006zm15.49 2.018v17.793a.52.52 0 0 1-.519.516h-4.467a.52.52 0 0 1-.519-.516V18.032c.865-.827 1.847-1.787 2.862-2.764l2.115-2.037.089.084q.2.201.428.37l.01.007zm-8.986 7.472v10.317a.52.52 0 0 1-.519.516h-4.467a.52.52 0 0 1-.519-.516v-9.222a6.5 6.5 0 0 0 1.57.188h.056-.003a6.8 6.8 0 0 0 3.899-1.296l-.02.014zm-8.988-.836v11.153a.52.52 0 0 1-.519.516H9.51a.52.52 0 0 1-.519-.516V19.38q.137-.1.265-.213l2.233-1.98 1.798 2 .138.147q.545.546 1.069.997z"/>
    </symbol>
    <symbol id="icon-home" viewBox="0 0 32 32">
      <path d="M16 2.799 1.333 16h4v12h9.333v-8h2.667v8h9.333V16h4L15.999 2.799zm0 3.589 8 7.201v11.745h-4v-8h-8v8H8V13.589z"/>
    </symbol>
    <symbol id="icon-plus" viewBox="0 0 32 32">
      <path fill="#fff" d="M6.277 6.278c-5.37 5.37-5.369 14.076 0 19.445s14.076 5.369 19.445 0c5.37-5.37 5.369-14.076 0-19.445s-14.076-5.369-19.445 0" style="fill:var(--color1, #fff)"/>
      <path fill="#444b54" d="M16 30.5a14.44 14.44 0 0 1-10.25-4.25C.1 20.6.1 11.4 5.75 5.75s14.85-5.65 20.5 0 5.65 14.85 0 20.5A14.44 14.44 0 0 1 16 30.5M16 3c-3.325 0-6.65 1.275-9.2 3.8-5.05 5.075-5.05 13.325 0 18.4 5.075 5.075 13.325 5.075 18.375 0 5.075-5.075 5.075-13.325 0-18.375A12.87 12.87 0 0 0 16 3" style="fill:var(--color2, #444b54)"/>
      <path fill="#71c2ff" d="M20.75 15.25h-4v-4c0-.425-.325-.75-.75-.75s-.75.325-.75.75v4h-4c-.425 0-.75.325-.75.75s.325.75.75.75h4v4c0 .425.325.75.75.75s.75-.325.75-.75v-4h4c.425 0 .75-.325.75-.75s-.325-.75-.75-.75" style="fill:var(--color3, #71c2ff)"/>
    </symbol>
    <symbol id="icon-settings" viewBox="0 0 32 32">
      <path d="m30.182 13.581-3.782-.618a10.8 10.8 0 0 0-.903-2.179l2.208-3.147a.64.64 0 0 0-.072-.82l-2.489-2.488a.64.64 0 0 0-.826-.067l-3.1 2.228a10.8 10.8 0 0 0-2.196-.913l-.66-3.767a.64.64 0 0 0-.63-.53h-3.52a.64.64 0 0 0-.632.537l-.612 3.747a10.8 10.8 0 0 0-2.2.904L7.677 4.26a.64.64 0 0 0-.825.068L4.364 6.816a.64.64 0 0 0-.072.819l2.175 3.112a10.8 10.8 0 0 0-.92 2.214l-3.732.621a.64.64 0 0 0-.535.631v3.52c0 .31.223.576.528.63l3.732.662c.223.77.532 1.512.92 2.214l-2.202 3.08a.64.64 0 0 0 .068.825l2.488 2.49c.22.22.566.25.82.072l3.117-2.183c.7.385 1.439.69 2.205.911l.625 3.751a.64.64 0 0 0 .63.534h3.52a.64.64 0 0 0 .63-.528l.669-3.77a10.8 10.8 0 0 0 2.195-.918l3.139 2.202c.255.18.6.148.82-.071l2.488-2.49a.64.64 0 0 0 .067-.827L25.5 21.209c.38-.691.681-1.422.9-2.181l3.788-.665a.64.64 0 0 0 .529-.63v-3.52a.64.64 0 0 0-.536-.632zM16 20.48a4.48 4.48 0 1 1 0-8.96 4.48 4.48 0 0 1 0 8.96"/>
    </symbol>
  </defs>
</svg>
